<svg width="400" height="400" xmlns="http://www.w3.org/2000/svg" xmlns:svg="http://www.w3.org/2000/svg">
<!-- Created by vmvt -->
<style>
  text { font: 24px courier, monospace; }
  text.t20 { font: 20px courier, monospace; }
  text.t14 { font: 14px courier, monospace; }
  </style>
<g>
<rect x="50.000000" y="339.976728" width="5.882353" height="0.023272" rx="2" style="stroke:#006600; fill:#00A087" />
<rect x="55.882353" y="264.156808" width="5.882353" height="75.843192" rx="2" style="stroke:#006600; fill:#00A087" />
<rect x="61.764706" y="340.000000" width="5.882353" height="0.000000" rx="2" style="stroke:#006600; fill:#00A087" />
<rect x="67.647059" y="320.823937" width="5.882353" height="19.176063" rx="2" style="stroke:#006600; fill:#00A087" />
<rect x="73.529412" y="340.000000" width="5.882353" height="0.000000" rx="2" style="stroke:#006600; fill:#00A087" />
<rect x="79.411765" y="340.000000" width="5.882353" height="0.000000" rx="2" style="stroke:#006600; fill:#00A087" />
<rect x="85.294118" y="340.000000" width="5.882353" height="0.000000" rx="2" style="stroke:#006600; fill:#00A087" />
<rect x="91.176471" y="340.000000" width="5.882353" height="0.000000" rx="2" style="stroke:#006600; fill:#00A087" />
<rect x="97.058824" y="340.000000" width="5.882353" height="0.000000" rx="2" style="stroke:#006600; fill:#00A087" />
<rect x="102.941176" y="340.000000" width="5.882353" height="0.000000" rx="2" style="stroke:#006600; fill:#00A087" />
<rect x="108.823529" y="321.405735" width="5.882353" height="18.594265" rx="2" style="stroke:#006600; fill:#00A087" />
<rect x="114.705882" y="340.000000" width="5.882353" height="0.000000" rx="2" style="stroke:#006600; fill:#00A087" />
<rect x="120.588235" y="340.000000" width="5.882353" height="0.000000" rx="2" style="stroke:#006600; fill:#00A087" />
<rect x="126.470588" y="321.157501" width="5.882353" height="18.842499" rx="2" style="stroke:#006600; fill:#00A087" />
<rect x="132.352941" y="340.000000" width="5.882353" height="0.000000" rx="2" style="stroke:#006600; fill:#00A087" />
<rect x="138.235294" y="302.408090" width="5.882353" height="37.591910" rx="2" style="stroke:#006600; fill:#00A087" />
<rect x="144.117647" y="321.235074" width="5.882353" height="18.764926" rx="2" style="stroke:#006600; fill:#00A087" />
<rect x="150.000000" y="227.837097" width="5.882353" height="112.162903" rx="2" style="stroke:#006600; fill:#00A087" />
<rect x="155.882353" y="282.355451" width="5.882353" height="57.644549" rx="2" style="stroke:#006600; fill:#00A087" />
<rect x="161.764706" y="265.855659" width="5.882353" height="74.144341" rx="2" style="stroke:#006600; fill:#00A087" />
<rect x="167.647059" y="321.157501" width="5.882353" height="18.842499" rx="2" style="stroke:#006600; fill:#00A087" />
<rect x="173.529412" y="302.446876" width="5.882353" height="37.553124" rx="2" style="stroke:#006600; fill:#00A087" />
<rect x="179.411765" y="246.602022" width="5.882353" height="93.397978" rx="2" style="stroke:#006600; fill:#00A087" />
<rect x="185.294118" y="244.934201" width="5.882353" height="95.065799" rx="2" style="stroke:#006600; fill:#00A087" />
<rect x="191.176471" y="244.329131" width="5.882353" height="95.670869" rx="2" style="stroke:#006600; fill:#00A087" />
<rect x="197.058824" y="60.000000" width="5.882353" height="280.000000" rx="2" style="stroke:#006600; fill:#00A087" />
<rect x="202.941176" y="132.693725" width="5.882353" height="207.306275" rx="2" style="stroke:#006600; fill:#00A087" />
<rect x="208.823529" y="244.685968" width="5.882353" height="95.314032" rx="2" style="stroke:#006600; fill:#00A087" />
<rect x="214.705882" y="246.136584" width="5.882353" height="93.863416" rx="2" style="stroke:#006600; fill:#00A087" />
<rect x="220.588235" y="245.329824" width="5.882353" height="94.670176" rx="2" style="stroke:#006600; fill:#00A087" />
<rect x="226.470588" y="302.904557" width="5.882353" height="37.095443" rx="2" style="stroke:#006600; fill:#00A087" />
<rect x="232.352941" y="321.289375" width="5.882353" height="18.710625" rx="2" style="stroke:#006600; fill:#00A087" />
<rect x="238.235294" y="264.443829" width="5.882353" height="75.556171" rx="2" style="stroke:#006600; fill:#00A087" />
<rect x="244.117647" y="283.612135" width="5.882353" height="56.387865" rx="2" style="stroke:#006600; fill:#00A087" />
<rect x="250.000000" y="226.696772" width="5.882353" height="113.303228" rx="2" style="stroke:#006600; fill:#00A087" />
<rect x="255.882353" y="321.460036" width="5.882353" height="18.539964" rx="2" style="stroke:#006600; fill:#00A087" />
<rect x="261.764706" y="303.075218" width="5.882353" height="36.924782" rx="2" style="stroke:#006600; fill:#00A087" />
<rect x="267.647059" y="340.000000" width="5.882353" height="0.000000" rx="2" style="stroke:#006600; fill:#00A087" />
<rect x="273.529412" y="320.971326" width="5.882353" height="19.028674" rx="2" style="stroke:#006600; fill:#00A087" />
<rect x="279.411765" y="340.000000" width="5.882353" height="0.000000" rx="2" style="stroke:#006600; fill:#00A087" />
<rect x="285.294118" y="340.000000" width="5.882353" height="0.000000" rx="2" style="stroke:#006600; fill:#00A087" />
<rect x="291.176471" y="322.096135" width="5.882353" height="17.903865" rx="2" style="stroke:#006600; fill:#00A087" />
<rect x="297.058824" y="340.000000" width="5.882353" height="0.000000" rx="2" style="stroke:#006600; fill:#00A087" />
<rect x="302.941176" y="340.000000" width="5.882353" height="0.000000" rx="2" style="stroke:#006600; fill:#00A087" />
<rect x="308.823529" y="340.000000" width="5.882353" height="0.000000" rx="2" style="stroke:#006600; fill:#00A087" />
<rect x="314.705882" y="340.000000" width="5.882353" height="0.000000" rx="2" style="stroke:#006600; fill:#00A087" />
<rect x="320.588235" y="340.000000" width="5.882353" height="0.000000" rx="2" style="stroke:#006600; fill:#00A087" />
<rect x="326.470588" y="340.000000" width="5.882353" height="0.000000" rx="2" style="stroke:#006600; fill:#00A087" />
<rect x="332.352941" y="320.963568" width="5.882353" height="19.036432" rx="2" style="stroke:#006600; fill:#00A087" />
<rect x="338.235294" y="340.000000" width="5.882353" height="0.000000" rx="2" style="stroke:#006600; fill:#00A087" />
<rect x="344.117647" y="263.427622" width="5.882353" height="76.572378" rx="2" style="stroke:#006600; fill:#00A087" />
<line x1="55.882353" y1="340" x2="361.764706" y2="340" stroke="#000000"/>
<line x1="55.882353" y1="340" x2="55.882353" y2="350" stroke="#000000"/>
<g transform='translate(25,370)'><text>-10</text></g>
<line x1="70.448179" y1="340" x2="70.448179" y2="345" stroke="#000000"/>
<line x1="85.014006" y1="340" x2="85.014006" y2="345" stroke="#000000"/>
<line x1="99.579832" y1="340" x2="99.579832" y2="345" stroke="#000000"/>
<line x1="114.145658" y1="340" x2="114.145658" y2="345" stroke="#000000"/>
<line x1="128.711485" y1="340" x2="128.711485" y2="350" stroke="#000000"/>
<g transform='translate(108,370)'><text>-5</text></g>
<line x1="143.277311" y1="340" x2="143.277311" y2="345" stroke="#000000"/>
<line x1="157.843137" y1="340" x2="157.843137" y2="345" stroke="#000000"/>
<line x1="172.408964" y1="340" x2="172.408964" y2="345" stroke="#000000"/>
<line x1="186.974790" y1="340" x2="186.974790" y2="345" stroke="#000000"/>
<line x1="201.540616" y1="340" x2="201.540616" y2="350" stroke="#000000"/>
<g transform='translate(194,370)'><text>0</text></g>
<line x1="216.106443" y1="340" x2="216.106443" y2="345" stroke="#000000"/>
<line x1="230.672269" y1="340" x2="230.672269" y2="345" stroke="#000000"/>
<line x1="245.238095" y1="340" x2="245.238095" y2="345" stroke="#000000"/>
<line x1="259.803922" y1="340" x2="259.803922" y2="345" stroke="#000000"/>
<line x1="274.369748" y1="340" x2="274.369748" y2="350" stroke="#000000"/>
<g transform='translate(267,370)'><text>5</text></g>
<line x1="288.935574" y1="340" x2="288.935574" y2="345" stroke="#000000"/>
<line x1="303.501401" y1="340" x2="303.501401" y2="345" stroke="#000000"/>
<line x1="318.067227" y1="340" x2="318.067227" y2="345" stroke="#000000"/>
<line x1="332.633053" y1="340" x2="332.633053" y2="345" stroke="#000000"/>
<line x1="347.198880" y1="340" x2="347.198880" y2="350" stroke="#000000"/>
<g transform='translate(335,370)'><text>10</text></g>
<text x="230" y="50" font-size="16">
ΔR<tspan dy="3" font-size="12">i</tspan></text>
<text x="268" y="50">: 8.96</text>
<g fill="none" stroke="#790079" stroke-width="2">
<path stroke-dasharray="2,2" d="M332 100 l0 240"/></g>
<circle cx="332" cy="100" r="8" stroke="black" 
 stroke-width="3" fill="#790079"/>
</g>
</svg>
