<svg width="420" height="360" xmlns="http://www.w3.org/2000/svg" xmlns:svg="http://www.w3.org/2000/svg">
<!-- Created by vmvt -->
<style>
  text { font: 24px courier, monospace; }
  text.t20 { font: 20px courier, monospace; }
  text.t14 { font: 14px courier, monospace; }
  text.t12 { font: 12px courier, monospace; }
  </style>
<g>
<rect x="50.000000" y="304.984745" width="5.882353" height="0.015255" rx="2" style="stroke:#006600; fill:#00A087" />
<rect x="55.882353" y="231.256776" width="5.882353" height="73.743224" rx="2" style="stroke:#006600; fill:#00A087" />
<rect x="61.764706" y="305.000000" width="5.882353" height="0.000000" rx="2" style="stroke:#006600; fill:#00A087" />
<rect x="67.647059" y="286.342995" width="5.882353" height="18.657005" rx="2" style="stroke:#006600; fill:#00A087" />
<rect x="73.529412" y="305.000000" width="5.882353" height="0.000000" rx="2" style="stroke:#006600; fill:#00A087" />
<rect x="79.411765" y="305.000000" width="5.882353" height="0.000000" rx="2" style="stroke:#006600; fill:#00A087" />
<rect x="85.294118" y="305.000000" width="5.882353" height="0.000000" rx="2" style="stroke:#006600; fill:#00A087" />
<rect x="91.176471" y="305.000000" width="5.882353" height="0.000000" rx="2" style="stroke:#006600; fill:#00A087" />
<rect x="97.058824" y="305.000000" width="5.882353" height="0.000000" rx="2" style="stroke:#006600; fill:#00A087" />
<rect x="102.941176" y="305.000000" width="5.882353" height="0.000000" rx="2" style="stroke:#006600; fill:#00A087" />
<rect x="108.823529" y="286.076030" width="5.882353" height="18.923970" rx="2" style="stroke:#006600; fill:#00A087" />
<rect x="114.705882" y="305.000000" width="5.882353" height="0.000000" rx="2" style="stroke:#006600; fill:#00A087" />
<rect x="120.588235" y="305.000000" width="5.882353" height="0.000000" rx="2" style="stroke:#006600; fill:#00A087" />
<rect x="126.470588" y="286.579449" width="5.882353" height="18.420551" rx="2" style="stroke:#006600; fill:#00A087" />
<rect x="132.352941" y="305.000000" width="5.882353" height="0.000000" rx="2" style="stroke:#006600; fill:#00A087" />
<rect x="138.235294" y="268.586042" width="5.882353" height="36.413958" rx="2" style="stroke:#006600; fill:#00A087" />
<rect x="144.117647" y="286.442153" width="5.882353" height="18.557847" rx="2" style="stroke:#006600; fill:#00A087" />
<rect x="150.000000" y="193.187638" width="5.882353" height="111.812362" rx="2" style="stroke:#006600; fill:#00A087" />
<rect x="155.882353" y="248.998474" width="5.882353" height="56.001526" rx="2" style="stroke:#006600; fill:#00A087" />
<rect x="161.764706" y="230.417745" width="5.882353" height="74.582255" rx="2" style="stroke:#006600; fill:#00A087" />
<rect x="167.647059" y="287.441363" width="5.882353" height="17.558637" rx="2" style="stroke:#006600; fill:#00A087" />
<rect x="173.529412" y="267.724128" width="5.882353" height="37.275872" rx="2" style="stroke:#006600; fill:#00A087" />
<rect x="179.411765" y="212.981149" width="5.882353" height="92.018851" rx="2" style="stroke:#006600; fill:#00A087" />
<rect x="185.294118" y="211.875153" width="5.882353" height="93.124847" rx="2" style="stroke:#006600; fill:#00A087" />
<rect x="191.176471" y="211.890408" width="5.882353" height="93.109592" rx="2" style="stroke:#006600; fill:#00A087" />
<rect x="197.058824" y="25.000000" width="5.882353" height="280.000000" rx="2" style="stroke:#006600; fill:#00A087" />
<rect x="202.941176" y="103.434171" width="5.882353" height="201.565829" rx="2" style="stroke:#006600; fill:#00A087" />
<rect x="208.823529" y="213.530333" width="5.882353" height="91.469667" rx="2" style="stroke:#006600; fill:#00A087" />
<rect x="214.705882" y="211.226811" width="5.882353" height="93.773189" rx="2" style="stroke:#006600; fill:#00A087" />
<rect x="220.588235" y="211.707347" width="5.882353" height="93.292653" rx="2" style="stroke:#006600; fill:#00A087" />
<rect x="226.470588" y="268.822496" width="5.882353" height="36.177504" rx="2" style="stroke:#006600; fill:#00A087" />
<rect x="232.352941" y="287.121006" width="5.882353" height="17.878994" rx="2" style="stroke:#006600; fill:#00A087" />
<rect x="238.235294" y="230.898281" width="5.882353" height="74.101719" rx="2" style="stroke:#006600; fill:#00A087" />
<rect x="244.117647" y="250.043450" width="5.882353" height="54.956550" rx="2" style="stroke:#006600; fill:#00A087" />
<rect x="250.000000" y="193.614781" width="5.882353" height="111.385219" rx="2" style="stroke:#006600; fill:#00A087" />
<rect x="255.882353" y="286.526056" width="5.882353" height="18.473944" rx="2" style="stroke:#006600; fill:#00A087" />
<rect x="261.764706" y="268.113133" width="5.882353" height="36.886867" rx="2" style="stroke:#006600; fill:#00A087" />
<rect x="267.647059" y="305.000000" width="5.882353" height="0.000000" rx="2" style="stroke:#006600; fill:#00A087" />
<rect x="273.529412" y="285.992127" width="5.882353" height="19.007873" rx="2" style="stroke:#006600; fill:#00A087" />
<rect x="279.411765" y="305.000000" width="5.882353" height="0.000000" rx="2" style="stroke:#006600; fill:#00A087" />
<rect x="285.294118" y="305.000000" width="5.882353" height="0.000000" rx="2" style="stroke:#006600; fill:#00A087" />
<rect x="291.176471" y="286.815903" width="5.882353" height="18.184097" rx="2" style="stroke:#006600; fill:#00A087" />
<rect x="297.058824" y="305.000000" width="5.882353" height="0.000000" rx="2" style="stroke:#006600; fill:#00A087" />
<rect x="302.941176" y="305.000000" width="5.882353" height="0.000000" rx="2" style="stroke:#006600; fill:#00A087" />
<rect x="308.823529" y="305.000000" width="5.882353" height="0.000000" rx="2" style="stroke:#006600; fill:#00A087" />
<rect x="314.705882" y="305.000000" width="5.882353" height="0.000000" rx="2" style="stroke:#006600; fill:#00A087" />
<rect x="320.588235" y="305.000000" width="5.882353" height="0.000000" rx="2" style="stroke:#006600; fill:#00A087" />
<rect x="326.470588" y="305.000000" width="5.882353" height="0.000000" rx="2" style="stroke:#006600; fill:#00A087" />
<rect x="332.352941" y="286.190444" width="5.882353" height="18.809556" rx="2" style="stroke:#006600; fill:#00A087" />
<rect x="338.235294" y="305.000000" width="5.882353" height="0.000000" rx="2" style="stroke:#006600; fill:#00A087" />
<rect x="344.117647" y="231.661037" width="5.882353" height="73.338963" rx="2" style="stroke:#006600; fill:#00A087" />
<line x1="55.882353" y1="305" x2="361.764706" y2="305" stroke="#000000"/>
<line x1="55.882353" y1="305" x2="55.882353" y2="315" stroke="#000000"/>
<g transform='translate(25,335)'><text>-10</text></g>
<line x1="70.448179" y1="305" x2="70.448179" y2="310" stroke="#000000"/>
<line x1="85.014006" y1="305" x2="85.014006" y2="310" stroke="#000000"/>
<line x1="99.579832" y1="305" x2="99.579832" y2="310" stroke="#000000"/>
<line x1="114.145658" y1="305" x2="114.145658" y2="310" stroke="#000000"/>
<line x1="128.711485" y1="305" x2="128.711485" y2="315" stroke="#000000"/>
<g transform='translate(108,335)'><text>-5</text></g>
<line x1="143.277311" y1="305" x2="143.277311" y2="310" stroke="#000000"/>
<line x1="157.843137" y1="305" x2="157.843137" y2="310" stroke="#000000"/>
<line x1="172.408964" y1="305" x2="172.408964" y2="310" stroke="#000000"/>
<line x1="186.974790" y1="305" x2="186.974790" y2="310" stroke="#000000"/>
<line x1="201.540616" y1="305" x2="201.540616" y2="315" stroke="#000000"/>
<g transform='translate(194,335)'><text>0</text></g>
<line x1="216.106443" y1="305" x2="216.106443" y2="310" stroke="#000000"/>
<line x1="230.672269" y1="305" x2="230.672269" y2="310" stroke="#000000"/>
<line x1="245.238095" y1="305" x2="245.238095" y2="310" stroke="#000000"/>
<line x1="259.803922" y1="305" x2="259.803922" y2="310" stroke="#000000"/>
<line x1="274.369748" y1="305" x2="274.369748" y2="315" stroke="#000000"/>
<g transform='translate(267,335)'><text>5</text></g>
<line x1="288.935574" y1="305" x2="288.935574" y2="310" stroke="#000000"/>
<line x1="303.501401" y1="305" x2="303.501401" y2="310" stroke="#000000"/>
<line x1="318.067227" y1="305" x2="318.067227" y2="310" stroke="#000000"/>
<line x1="332.633053" y1="305" x2="332.633053" y2="310" stroke="#000000"/>
<line x1="347.198880" y1="305" x2="347.198880" y2="315" stroke="#000000"/>
<g transform='translate(335,335)'><text>10</text></g>
<text x="230" y="55" font-size="16">
ΔR<tspan dy="3" font-size="12">i</tspan></text>
<text x="268" y="55">: 8.96</text>
<g fill="none" stroke="#790079" stroke-width="2">
<path stroke-dasharray="2,2" d="M332 100 l0 205"/></g>
<circle cx="332" cy="100" r="8" stroke="black" 
 stroke-width="3" fill="#790079"/>
</g>
</svg>
