<svg width="900" height="310" xmlns="http://www.w3.org/2000/svg" xmlns:svg="http://www.w3.org/2000/svg">
<!-- Created by vmvt -->
<style>
  text { font: 24px courier, monospace; }
  text.t20 { font: 20px courier, monospace; }
  text.t14 { font: 14px courier, monospace; }
  </style>
<g>
<svg width="900" height="300" xmlns="http://www.w3.org/2000/svg" xmlns:svg="http://www.w3.org/2000/svg">
<!-- Created by vmvt -->
<style>
  text { font: 24px courier, monospace; }
  text.t20 { font: 20px courier, monospace; }
  text.t14 { font: 14px courier, monospace; }
  </style>
<g>
<line x1="80" y1="100" x2="80" y2="280" stroke="black"/>
<g transform='translate(20,105.000000)'><text>1.0</text></g>
<line x1="70" y1="100.000000" x2="80" y2="100.000000" stroke="black"/>
<line x1="75" y1="118.000000" x2="80" y2="118.000000" stroke="black"/>
<line x1="75" y1="136.000000" x2="80" y2="136.000000" stroke="black"/>
<line x1="75" y1="154.000000" x2="80" y2="154.000000" stroke="black"/>
<line x1="75" y1="172.000000" x2="80" y2="172.000000" stroke="black"/>
<g transform='translate(20,195.000000)'><text>0.0</text></g>
<line x1="70" y1="190.000000" x2="80" y2="190.000000" stroke="black"/>
<line x1="75" y1="208.000000" x2="80" y2="208.000000" stroke="black"/>
<line x1="75" y1="226.000000" x2="80" y2="226.000000" stroke="black"/>
<line x1="75" y1="244.000000" x2="80" y2="244.000000" stroke="black"/>
<line x1="75" y1="262.000000" x2="80" y2="262.000000" stroke="black"/>
<g transform='translate(6,285.000000)'><text>-1.0</text></g>
<line x1="70" y1="280.000000" x2="80" y2="280.000000" stroke="black"/>
<line x1="80" y1="190" x2="430" y2="190" stroke="black"/>
<line x1="130.000000" y1="190" x2="130.000000" y2="195" stroke="black"/>
<rect x="90.000000" y="176.059000" width="30.000000" height="13.941000" rx="2" style="stroke:#006600; fill: #00A087" />
<g transform='translate(105.000000,280) scale(0.75,0.75)'><text>1</text></g>
<line x1="180.000000" y1="190" x2="180.000000" y2="195" stroke="black"/>
<rect x="140.000000" y="149.941000" width="30.000000" height="40.059000" rx="2" style="stroke:#006600; fill: #00A087" />
<g transform='translate(155.000000,280) scale(0.75,0.75)'><text>2</text></g>
<line x1="230.000000" y1="190" x2="230.000000" y2="195" stroke="black"/>
<rect x="190.000000" y="190" width="30.000000" height="9.099000" rx="2" style="stroke:#006600; fill: #00A087" fill-opacity="0.4"/>
<g transform='translate(205.000000,280) scale(0.75,0.75)'><text>3</text></g>
<line x1="280.000000" y1="190" x2="280.000000" y2="195" stroke="black"/>
<rect x="240.000000" y="190" width="30.000000" height="8.901000" rx="2" style="stroke:#006600; fill: #00A087" fill-opacity="0.4"/>
<g transform='translate(255.000000,280) scale(0.75,0.75)'><text>4</text></g>
<line x1="330.000000" y1="190" x2="330.000000" y2="195" stroke="black"/>
<rect x="290.000000" y="190" width="30.000000" height="2.322000" rx="2" style="stroke:#006600; fill: #00A087" fill-opacity="0.4"/>
<g transform='translate(305.000000,280) scale(0.75,0.75)'><text>5</text></g>
<line x1="380.000000" y1="190" x2="380.000000" y2="195" stroke="black"/>
<g transform='translate(355.000000,280) scale(0.75,0.75)'><text>6</text></g>
<line x1="430.000000" y1="190" x2="430.000000" y2="195" stroke="black"/>
<rect x="390.000000" y="190" width="30.000000" height="23.751000" rx="2" style="stroke:#006600; fill: #00A087" fill-opacity="0.4"/>
<g transform='translate(405.000000,280) scale(0.75,0.75)'><text>7</text></g>
<line x1="80" y1="189" x2="430" y2="189" stroke="#e64b35"/>
<line x1="530" y1="100" x2="530" y2="280" stroke="black"/>
<g transform='translate(470,105.000000)'><text>1.0</text></g>
<line x1="520" y1="100.000000" x2="530" y2="100.000000" stroke="black"/>
<line x1="525" y1="118.000000" x2="530" y2="118.000000" stroke="black"/>
<line x1="525" y1="136.000000" x2="530" y2="136.000000" stroke="black"/>
<line x1="525" y1="154.000000" x2="530" y2="154.000000" stroke="black"/>
<line x1="525" y1="172.000000" x2="530" y2="172.000000" stroke="black"/>
<g transform='translate(470,195.000000)'><text>0.0</text></g>
<line x1="520" y1="190.000000" x2="530" y2="190.000000" stroke="black"/>
<line x1="525" y1="208.000000" x2="530" y2="208.000000" stroke="black"/>
<line x1="525" y1="226.000000" x2="530" y2="226.000000" stroke="black"/>
<line x1="525" y1="244.000000" x2="530" y2="244.000000" stroke="black"/>
<line x1="525" y1="262.000000" x2="530" y2="262.000000" stroke="black"/>
<g transform='translate(456,285.000000)'><text>-1.0</text></g>
<line x1="520" y1="280.000000" x2="530" y2="280.000000" stroke="black"/>
<line x1="530" y1="190" x2="880" y2="190" stroke="black"/>
<line x1="580.000000" y1="190" x2="580.000000" y2="195" stroke="black"/>
<rect x="540.000000" y="176.032000" width="30.000000" height="13.968000" rx="2" style="stroke:#006600; fill: #00A087" />
<g transform='translate(555.000000,280) scale(0.75,0.75)'><text>1</text></g>
<line x1="630.000000" y1="190" x2="630.000000" y2="195" stroke="black"/>
<rect x="590.000000" y="171.874000" width="30.000000" height="18.126000" rx="2" style="stroke:#006600; fill: #00A087" />
<g transform='translate(605.000000,280) scale(0.75,0.75)'><text>2</text></g>
<line x1="680.000000" y1="190" x2="680.000000" y2="195" stroke="black"/>
<rect x="640.000000" y="190" width="30.000000" height="3.096000" rx="2" style="stroke:#006600; fill: #00A087" fill-opacity="0.4"/>
<g transform='translate(655.000000,280) scale(0.75,0.75)'><text>3</text></g>
<line x1="730.000000" y1="190" x2="730.000000" y2="195" stroke="black"/>
<rect x="690.000000" y="181.270000" width="30.000000" height="8.730000" rx="2" style="stroke:#006600; fill: #00A087" />
<g transform='translate(705.000000,280) scale(0.75,0.75)'><text>4</text></g>
<line x1="780.000000" y1="190" x2="780.000000" y2="195" stroke="black"/>
<rect x="740.000000" y="173.971000" width="30.000000" height="16.029000" rx="2" style="stroke:#006600; fill: #00A087" />
<g transform='translate(755.000000,280) scale(0.75,0.75)'><text>5</text></g>
<line x1="830.000000" y1="190" x2="830.000000" y2="195" stroke="black"/>
<rect x="790.000000" y="176.590000" width="30.000000" height="13.410000" rx="2" style="stroke:#006600; fill: #00A087" />
<g transform='translate(805.000000,280) scale(0.75,0.75)'><text>6</text></g>
<line x1="880.000000" y1="190" x2="880.000000" y2="195" stroke="black"/>
<rect x="840.000000" y="172.945000" width="30.000000" height="17.055000" rx="2" style="stroke:#006600; fill: #00A087" />
<g transform='translate(855.000000,280) scale(0.75,0.75)'><text>7</text></g>
<line x1="530" y1="178" x2="880" y2="178" stroke="#e64b35"/>
<line x1="410" x2="530" y1="189" y2="178" stroke="#e64b35" stroke-width="1"  stroke-dasharray="1, 3"/>
<rect x="350" y="30" rx="3" ry="3" width="200" height="40" style="stroke: none; fill: #4dbbd5;fill-opacity: 0.1"></rect><text x='50%' y='57' text-anchor='middle'>ΔESE: 0.82</text></g>
</svg>
</g>
</svg>
